<svg width="941" height="627" viewBox="0 0 941 627" fill="none" xmlns="http://www.w3.org/2000/svg">
<path d="M634.5 1L416 161.5L781.5 161C756.5 246.5 711.757 423.792 705 443.5C699 461 687 463.5 677 463.5H374L321 329L172 438.5L242 622.5C341.833 625 570.2 628.3 685 621.5C799.8 614.7 848.5 519 858.5 472C869.833 431.5 900.6 316 933 178C965.4 40 879.833 2.5 833 1H634.5Z" fill="#090A0A" stroke="black"/>
<path d="M277 0.5H113.5L0.5 437L134.5 339L163 412L312 303L283 230.5L598 0.5H363L255 81L277 0.5Z" fill="#3053EC"/>
</svg>
