<svg width="46" height="48" viewBox="0 0 46 48" fill="none" xmlns="http://www.w3.org/2000/svg">
<g clip-path="url(#clip0_900_20022)">
<path d="M21.6179 0.151123L47.0002 25.5334L47.0002 47.1619L0.000244983 0.161864L21.6179 0.151123Z" fill="#3053EC"/>
<path d="M14.2745 7.65613C14.2227 7.60428 14.1967 7.55006 14.1967 7.4935C14.2014 7.43221 14.2274 7.378 14.2745 7.33086L18.8919 2.71345C18.9438 2.6616 18.998 2.63567 19.0545 2.63567C19.1158 2.63096 19.1724 2.65453 19.2243 2.70638L20.9496 4.43172C21.4823 4.96441 21.7793 5.51124 21.8405 6.07221C21.9018 6.63318 21.6873 7.1588 21.1971 7.64906C20.8341 8.01204 20.4452 8.2171 20.0304 8.26424C19.6249 8.31138 19.2219 8.22417 18.8212 8.00261L18.0292 10.9725C18.0151 11.0149 17.9962 11.0479 17.9727 11.0715C17.935 11.1092 17.8855 11.1257 17.8242 11.121C17.7676 11.121 17.7205 11.1021 17.6828 11.0644L17.3433 10.725C17.2632 10.6448 17.2255 10.5647 17.2302 10.4846C17.2349 10.4044 17.2444 10.329 17.2585 10.2583L18.0292 7.43693L16.7918 6.19949L14.9675 8.02383C14.9203 8.07097 14.8638 8.09454 14.7978 8.09454C14.7412 8.09454 14.687 8.06861 14.6351 8.01675L14.2745 7.65613ZM17.3928 5.59845L18.5596 6.76518C18.9131 7.11873 19.2502 7.30965 19.5707 7.33793C19.896 7.3615 20.2048 7.22715 20.497 6.93488C20.7846 6.64732 20.9166 6.34091 20.893 6.01564C20.8742 5.69509 20.6856 5.35568 20.3273 4.99741L19.1606 3.83068L17.3928 5.59845ZM20.005 13.528C19.5195 13.0425 19.2814 12.5075 19.2908 11.9229C19.305 11.3337 19.5572 10.7656 20.0474 10.2188C20.104 10.1528 20.1794 10.0726 20.2737 9.97837C20.3727 9.87937 20.4552 9.80159 20.5212 9.74502C20.8747 9.42918 21.2448 9.21469 21.6313 9.10156C22.0226 8.9837 22.4044 8.97428 22.7769 9.07327C23.154 9.17698 23.5028 9.38911 23.8234 9.70967C24.1816 10.0679 24.4056 10.4427 24.4951 10.834C24.5894 11.2299 24.5611 11.6306 24.4103 12.036C24.2594 12.4415 23.9978 12.8304 23.6254 13.2028L23.5052 13.323C23.4533 13.3748 23.3968 13.3984 23.3355 13.3937C23.2789 13.3937 23.227 13.3701 23.1799 13.323L20.7333 10.8764C20.7286 10.8811 20.7192 10.8905 20.705 10.9047C20.6909 10.9188 20.6791 10.9306 20.6697 10.94C20.4858 11.1427 20.3468 11.3667 20.2525 11.6118C20.1629 11.8522 20.137 12.095 20.1747 12.3401C20.2124 12.5852 20.3303 12.8068 20.5283 13.0048C20.698 13.1745 20.8653 13.29 21.0303 13.3513C21.1953 13.4125 21.3438 13.4479 21.4758 13.4573C21.6125 13.462 21.7091 13.4597 21.7657 13.4503C21.8694 13.4314 21.9378 13.429 21.9708 13.4432C22.0085 13.4526 22.0533 13.4833 22.1051 13.5351L22.4445 13.8745C22.4917 13.9217 22.5152 13.9735 22.5152 14.0301C22.5247 14.0867 22.5034 14.1362 22.4516 14.1786C22.3762 14.2446 22.2512 14.2941 22.0768 14.3271C21.9071 14.3554 21.7068 14.353 21.4758 14.32C21.2448 14.287 21.002 14.2092 20.7475 14.0867C20.4976 13.9594 20.2501 13.7732 20.005 13.528ZM21.2212 10.3885L23.1587 12.326L23.1799 12.3047C23.392 12.0926 23.5405 11.864 23.6254 11.6189C23.715 11.3784 23.7338 11.138 23.682 10.8976C23.6348 10.6525 23.5099 10.4286 23.3072 10.2259C23.1045 10.0232 22.8806 9.89823 22.6354 9.85109C22.3997 9.80395 22.1617 9.82516 21.9213 9.91473C21.6808 10.0043 21.4546 10.1551 21.2424 10.3673L21.2212 10.3885ZM24.0921 9.05913C24.0167 8.9837 24.0167 8.90828 24.0921 8.83286C24.1298 8.79514 24.1722 8.77629 24.2194 8.77629L25.3861 8.67022C25.4804 8.66079 25.5511 8.66551 25.5982 8.68436C25.6501 8.6985 25.709 8.73857 25.775 8.80457L26.2558 9.2854C26.3454 9.37497 26.3454 9.46454 26.2558 9.5541C26.2228 9.5871 26.1828 9.6036 26.1356 9.6036L24.6436 9.45511C24.5729 9.45039 24.5163 9.43625 24.4739 9.41268C24.4315 9.38911 24.3843 9.3514 24.3325 9.29955L24.0921 9.05913ZM23.7708 17.2939C23.5069 17.0299 23.3136 16.7706 23.191 16.5161C23.0684 16.2615 22.9954 16.0282 22.9718 15.816C22.9482 15.6039 22.953 15.4201 22.9859 15.2645C23.0237 15.1136 23.0684 15.0076 23.1203 14.9463C23.1674 14.8897 23.224 14.8662 23.29 14.8756C23.356 14.885 23.4079 14.9086 23.4456 14.9463L23.7567 15.2574C23.785 15.2857 23.8015 15.3116 23.8062 15.3352C23.8203 15.3588 23.8251 15.4012 23.8203 15.4625C23.8156 15.5898 23.818 15.7241 23.8274 15.8655C23.8368 16.007 23.8745 16.1531 23.9405 16.3039C24.0113 16.4595 24.1291 16.6198 24.2941 16.7848C24.5345 17.0252 24.7773 17.1784 25.0224 17.2444C25.2723 17.3057 25.4868 17.2467 25.6659 17.0676C25.7837 16.9498 25.845 16.8225 25.8497 16.6858C25.8592 16.5538 25.8097 16.377 25.7012 16.1554C25.5975 15.9386 25.4349 15.6581 25.2133 15.314C24.9965 14.9651 24.8527 14.6611 24.782 14.4018C24.716 14.1378 24.7136 13.9045 24.7749 13.7018C24.8409 13.4944 24.9588 13.3058 25.1285 13.1361C25.3029 12.9617 25.5221 12.8462 25.7861 12.7896C26.0548 12.7283 26.34 12.7448 26.6417 12.8391C26.9481 12.9381 27.2522 13.1385 27.5539 13.4402C27.799 13.6853 27.9781 13.9257 28.0913 14.1614C28.2044 14.3971 28.2704 14.6187 28.2893 14.8261C28.3128 15.0288 28.3081 15.2032 28.2751 15.3493C28.2421 15.4955 28.1973 15.6015 28.1408 15.6675C28.0983 15.7194 28.0441 15.7453 27.9781 15.7453C27.9168 15.7406 27.865 15.717 27.8226 15.6746L27.5256 15.3776C27.4926 15.3446 27.4714 15.3093 27.4619 15.2716C27.4572 15.2386 27.4549 15.2032 27.4549 15.1655C27.469 15.0571 27.4737 14.9392 27.469 14.8119C27.469 14.6894 27.436 14.5574 27.37 14.416C27.3134 14.2745 27.2027 14.1213 27.0377 13.9563C26.802 13.7206 26.5757 13.5934 26.3588 13.5745C26.142 13.5556 25.9582 13.6216 25.8073 13.7725C25.7177 13.8621 25.6635 13.9681 25.6447 14.0907C25.6258 14.2133 25.6612 14.3759 25.7507 14.5786C25.8403 14.7813 25.9959 15.0594 26.2174 15.413C26.4673 15.7854 26.6299 16.113 26.7053 16.3959C26.7808 16.6787 26.7878 16.9262 26.7265 17.1383C26.6653 17.3505 26.5451 17.5461 26.3659 17.7252C26.1679 17.9232 25.9275 18.0458 25.6447 18.0929C25.3665 18.1448 25.0648 18.1071 24.7396 17.9798C24.4237 17.8525 24.1008 17.6239 23.7708 17.2939ZM27.5663 21.0894C27.0808 20.6038 26.8427 20.0688 26.8522 19.4843C26.8663 18.895 27.1185 18.327 27.6088 17.7801C27.6653 17.7141 27.7408 17.634 27.835 17.5397C27.934 17.4407 28.0165 17.3629 28.0825 17.3064C28.4361 16.9905 28.8061 16.776 29.1927 16.6629C29.584 16.5451 29.9658 16.5356 30.3382 16.6346C30.7153 16.7383 31.0642 16.9505 31.3847 17.271C31.743 17.6293 31.9669 18.004 32.0565 18.3953C32.1508 18.7913 32.1225 19.192 31.9716 19.5974C31.8208 20.0028 31.5591 20.3917 31.1867 20.7641L31.0665 20.8843C31.0147 20.9362 30.9581 20.9598 30.8968 20.955C30.8402 20.955 30.7884 20.9315 30.7413 20.8843L28.2947 18.4377C28.29 18.4425 28.2805 18.4519 28.2664 18.466C28.2522 18.4802 28.2405 18.492 28.231 18.5014C28.0472 18.7041 27.9081 18.928 27.8138 19.1731C27.7243 19.4135 27.6983 19.6563 27.7361 19.9015C27.7738 20.1466 27.8916 20.3681 28.0896 20.5661C28.2593 20.7358 28.4267 20.8513 28.5916 20.9126C28.7566 20.9739 28.9051 21.0093 29.0371 21.0187C29.1738 21.0234 29.2705 21.021 29.327 21.0116C29.4307 20.9928 29.4991 20.9904 29.5321 21.0045C29.5698 21.014 29.6146 21.0446 29.6665 21.0965L30.0059 21.4359C30.053 21.483 30.0766 21.5349 30.0766 21.5914C30.086 21.648 30.0648 21.6975 30.0129 21.7399C29.9375 21.8059 29.8126 21.8554 29.6382 21.8884C29.4685 21.9167 29.2681 21.9143 29.0371 21.8814C28.8061 21.8484 28.5634 21.7706 28.3088 21.648C28.059 21.5207 27.8115 21.3345 27.5663 21.0894ZM28.7826 17.9498L30.72 19.8873L30.7413 19.8661C30.9534 19.654 31.1019 19.4253 31.1867 19.1802C31.2763 18.9398 31.2952 18.6994 31.2433 18.459C31.1962 18.2138 31.0712 17.9899 30.8685 17.7872C30.6658 17.5845 30.4419 17.4596 30.1968 17.4124C29.9611 17.3653 29.723 17.3865 29.4826 17.4761C29.2422 17.5656 29.0159 17.7165 28.8038 17.9286L28.7826 17.9498ZM30.2927 23.6744C30.2456 23.6272 30.2197 23.573 30.215 23.5117C30.2197 23.4504 30.2456 23.3962 30.2927 23.3491L33.6374 20.0045C33.6845 19.9573 33.7387 19.9314 33.8 19.9267C33.866 19.9267 33.9226 19.9503 33.9697 19.9974L34.295 20.3227C34.3421 20.3698 34.3657 20.4264 34.3657 20.4924C34.3657 20.5584 34.3421 20.6149 34.295 20.6621L33.9838 20.9732C34.2384 20.9072 34.4882 20.9166 34.7334 21.0015C34.9785 21.0864 35.2166 21.2443 35.4475 21.4753L35.7304 21.7581C35.7775 21.8052 35.7987 21.8595 35.794 21.9207C35.794 21.9773 35.7705 22.0292 35.7233 22.0763L35.4334 22.3662C35.3863 22.4134 35.3344 22.4369 35.2778 22.4369C35.2213 22.4369 35.1694 22.4134 35.1223 22.3662L34.698 21.942C34.4435 21.6874 34.1677 21.5625 33.8707 21.5672C33.5784 21.5672 33.305 21.6945 33.0505 21.949L30.9716 24.0279C30.9244 24.0751 30.8679 24.0986 30.8019 24.0986C30.7406 24.0939 30.6864 24.068 30.6392 24.0208L30.2927 23.6744ZM34.0961 27.4778C34.0254 27.4071 33.9854 27.334 33.9759 27.2586C33.9712 27.1879 33.983 27.1148 34.0113 27.0394L35.9841 22.4502C35.9983 22.4172 36.0171 22.389 36.0407 22.3654C36.0831 22.323 36.1326 22.3017 36.1892 22.3017C36.2457 22.3017 36.2952 22.323 36.3377 22.3654L36.6771 22.7048C36.7289 22.7567 36.7549 22.8109 36.7549 22.8674C36.7549 22.924 36.7454 22.9664 36.7266 22.9947L35.0225 26.8626L38.8833 25.1514C38.9163 25.1372 38.9587 25.1278 39.0105 25.1231C39.0671 25.1231 39.1213 25.149 39.1732 25.2009L39.5197 25.5474C39.5574 25.5851 39.5762 25.6322 39.5762 25.6888C39.5809 25.7501 39.5621 25.8019 39.5197 25.8444C39.4961 25.8679 39.4678 25.8868 39.4348 25.9009L34.8386 27.8667C34.7679 27.8997 34.6948 27.9115 34.6194 27.902C34.5487 27.8973 34.4756 27.8572 34.4002 27.7818L34.0961 27.4778ZM37.9934 31.5165C37.5079 31.0309 37.2698 30.4959 37.2792 29.9113C37.2934 29.3221 37.5456 28.754 38.0358 28.2072C38.0924 28.1412 38.1678 28.0611 38.2621 27.9668C38.3611 27.8678 38.4436 27.79 38.5096 27.7334C38.8631 27.4176 39.2332 27.2031 39.6198 27.09C40.011 26.9721 40.3929 26.9627 40.7653 27.0617C41.1424 27.1654 41.4912 27.3775 41.8118 27.6981C42.1701 28.0563 42.394 28.4311 42.4835 28.8224C42.5778 29.2184 42.5495 29.6191 42.3987 30.0245C42.2478 30.4299 41.9862 30.8188 41.6138 31.1912L41.4936 31.3114C41.4417 31.3632 41.3852 31.3868 41.3239 31.3821C41.2673 31.3821 41.2155 31.3585 41.1683 31.3114L38.7217 28.8648C38.717 28.8695 38.7076 28.8789 38.6934 28.8931C38.6793 28.9072 38.6675 28.919 38.6581 28.9284C38.4742 29.1311 38.3352 29.3551 38.2409 29.6002C38.1513 29.8406 38.1254 30.0834 38.1631 30.3285C38.2008 30.5736 38.3187 30.7952 38.5167 30.9932C38.6864 31.1629 38.8537 31.2784 39.0187 31.3397C39.1837 31.401 39.3322 31.4363 39.4642 31.4457C39.6009 31.4505 39.6975 31.4481 39.7541 31.4387C39.8578 31.4198 39.9262 31.4175 39.9592 31.4316C39.9969 31.441 40.0417 31.4717 40.0935 31.5235L40.4329 31.8629C40.4801 31.9101 40.5036 31.9619 40.5036 32.0185C40.5131 32.0751 40.4919 32.1246 40.44 32.167C40.3646 32.233 40.2396 32.2825 40.0652 32.3155C39.8955 32.3438 39.6952 32.3414 39.4642 32.3084C39.2332 32.2754 38.9904 32.1976 38.7359 32.0751C38.486 31.9478 38.2385 31.7616 37.9934 31.5165ZM39.2096 28.3769L41.1471 30.3144L41.1683 30.2932C41.3804 30.081 41.5289 29.8524 41.6138 29.6073C41.7034 29.3668 41.7222 29.1264 41.6704 28.886C41.6232 28.6409 41.4983 28.417 41.2956 28.2143C41.0929 28.0116 40.869 27.8866 40.6238 27.8395C40.3881 27.7924 40.1501 27.8136 39.9097 27.9031C39.6693 27.9927 39.443 28.1436 39.2308 28.3557L39.2096 28.3769ZM42.0805 27.0475C42.0051 26.9721 42.0051 26.8967 42.0805 26.8213C42.1182 26.7836 42.1606 26.7647 42.2078 26.7647L43.3745 26.6586C43.4688 26.6492 43.5395 26.6539 43.5866 26.6728C43.6385 26.6869 43.6974 26.727 43.7634 26.793L44.2442 27.2738C44.3338 27.3634 44.3338 27.4529 44.2442 27.5425C44.2112 27.5755 44.1712 27.592 44.124 27.592L42.632 27.4435C42.5613 27.4388 42.5047 27.4247 42.4623 27.4011C42.4199 27.3775 42.3728 27.3398 42.3209 27.288L42.0805 27.0475Z" fill="white"/>
</g>
<defs>
<clipPath id="clip0_900_20022">
<rect width="46" height="47.0222" fill="white" transform="translate(0 0.347656)"/>
</clipPath>
</defs>
</svg>
