<svg width="335" height="191" viewBox="0 0 335 191" fill="none" xmlns="http://www.w3.org/2000/svg">
<g filter="url(#filter0_d_592_11708)">
<rect x="4" y="183" width="183" height="327" rx="5" transform="rotate(-90 4 183)" fill="#19C873"/>
</g>
<g opacity="0.35">
<path d="M8.18447 4.96196C8.18447 4.40967 8.63219 3.96196 9.18447 3.96196L325.808 3.96196C326.36 3.96196 326.808 4.40968 326.808 4.96196V178.038C326.808 178.59 326.36 179.038 325.808 179.038L9.18447 179.038C8.63218 179.038 8.18447 178.59 8.18447 178.038L8.18447 4.96196ZM8.00001 3C7.44772 3 7 3.44772 7 4L7 179C7 179.552 7.44772 180 8 180L326.992 180C327.545 180 327.992 179.552 327.992 179V4.00002C327.992 3.44772 327.545 3 326.992 3L8.00001 3Z" fill="white" stroke="white" stroke-width="3"/>
<path d="M22.2154 179.297C22.2547 179.626 21.9971 179.909 21.6659 179.923C21.3429 179.936 21.0709 179.687 21.0314 179.366C20.3621 173.928 14.8683 169.585 8.13776 169.212C7.8705 169.197 7.65943 168.973 7.66931 168.706C7.67906 168.442 7.90031 168.235 8.16385 168.249C15.5058 168.638 21.5072 173.375 22.2154 179.297Z" fill="white" stroke="white" stroke-width="3"/>
<path d="M21.604 3.71114C21.9368 3.72195 22.1969 4.00533 22.1573 4.33586C21.4468 10.2565 15.4466 14.9908 8.10624 15.3803C7.84269 15.3943 7.62144 15.187 7.6117 14.9232C7.60181 14.6558 7.81287 14.4323 8.08014 14.4175C14.8125 14.0437 20.3176 9.69958 20.9753 4.268C21.014 3.94896 21.2828 3.70071 21.604 3.71114Z" fill="white" stroke="white" stroke-width="3"/>
<path d="M327 14.9708C327.266 14.9782 327.482 15.1928 327.482 15.4585C327.482 15.7241 327.265 15.9401 327 15.9333C319.137 15.7321 312.77 10.6259 312.396 4.26672C312.377 3.94018 312.644 3.67451 312.971 3.67451C313.298 3.67451 313.561 3.94009 313.582 4.26653C313.954 10.0965 319.789 14.7707 327 14.9708Z" fill="white" stroke="white" stroke-width="3"/>
<path d="M327.003 168.627C327.269 168.621 327.485 168.837 327.485 169.102C327.485 169.368 327.269 169.583 327.003 169.59C320.218 169.774 314.655 173.836 313.707 179.274C313.652 179.587 313.375 179.82 313.057 179.796C312.721 179.772 312.472 179.472 312.529 179.14C313.561 173.226 319.61 168.812 327.003 168.627Z" fill="white" stroke="white" stroke-width="3"/>
<path d="M8.46677 76.8509C8.46677 76.2986 8.91449 75.8509 9.46677 75.8509H24.4532C25.0055 75.8509 25.4532 76.2986 25.4532 76.8509L25.4532 106.711C25.4532 107.263 25.0055 107.711 24.4532 107.711H9.46678C8.91449 107.711 8.46677 107.263 8.46677 106.711L8.46677 76.8509ZM8.28223 74.8889C7.72994 74.8889 7.28223 75.3367 7.28223 75.8889L7.28223 107.673C7.28223 108.225 7.72994 108.673 8.28223 108.673H25.6377C26.19 108.673 26.6377 108.225 26.6377 107.673L26.6377 75.8889C26.6377 75.3367 26.19 74.8889 25.6377 74.8889H8.28223Z" fill="white" stroke="white" stroke-width="3"/>
<path d="M291.032 75.7085C291.187 75.983 291.098 76.3291 290.841 76.5115C286.915 79.2973 284.403 85.2199 284.403 91.8017C284.403 98.344 286.891 104.245 290.781 107.048C291.038 107.234 291.125 107.582 290.967 107.857C290.798 108.15 290.418 108.245 290.144 108.047C285.948 105.024 283.266 98.7282 283.266 91.8017C283.266 84.8265 285.972 78.5185 290.214 75.5129C290.489 75.3181 290.867 75.415 291.032 75.7085Z" fill="white" stroke="white" stroke-width="3"/>
<path d="M326.713 122.824C326.713 123.376 326.265 123.824 325.713 123.824H292.51C291.958 123.824 291.51 123.376 291.51 122.824V60.738C291.51 60.1857 291.958 59.738 292.51 59.738H325.713C326.265 59.738 326.713 60.1857 326.713 60.738V122.824ZM327.767 124.68V59.8818C327.767 59.3295 327.319 58.8818 326.767 58.8818H291.48C290.928 58.8818 290.48 59.3296 290.48 59.8818V123.67C290.48 124.222 290.928 124.67 291.48 124.67H327.757C327.763 124.67 327.767 124.674 327.767 124.68Z" fill="white" stroke="white" stroke-width="3"/>
<path d="M43.8292 75.7095C43.6744 75.984 43.7633 76.3301 44.0203 76.5124C47.9466 79.2983 50.4586 85.2209 50.4586 91.8027C50.4586 98.3449 47.9705 104.246 44.0802 107.049C43.823 107.235 43.7364 107.583 43.8944 107.858C44.0632 108.151 44.4433 108.246 44.7177 108.048C48.9137 105.025 51.5958 98.7292 51.5958 91.8027C51.5958 84.8275 48.8899 78.5195 44.6475 75.5139C44.3725 75.3191 43.9947 75.416 43.8292 75.7095Z" fill="white" stroke="white" stroke-width="3"/>
<path d="M8.04222 122.942C8.04222 123.494 8.48994 123.942 9.04222 123.942H42.2448C42.7971 123.942 43.2448 123.494 43.2448 122.942L43.2448 60.8561C43.2448 60.3039 42.7971 59.8561 42.2448 59.8561L9.04222 59.8561C8.48994 59.8561 8.04222 60.3039 8.04222 60.8561L8.04222 122.942ZM6.99989 124.798L6.99989 60C6.99989 59.4477 7.4476 59 7.99989 59L43.2871 59C43.8394 59 44.2871 59.4477 44.2871 60L44.2871 123.788C44.2871 124.341 43.8394 124.788 43.2871 124.788H7.0095C7.00419 124.788 6.99989 124.793 6.99989 124.798Z" fill="white" stroke="white" stroke-width="3"/>
<path d="M166.699 3.51682V179.259C166.699 179.544 166.93 179.774 167.215 179.774C167.5 179.774 167.731 179.544 167.731 179.259V3.51682C167.731 3.23198 167.5 3.00108 167.215 3.00108C166.93 3.00108 166.699 3.23198 166.699 3.51682Z" fill="white" stroke="white" stroke-width="3"/>
<path d="M199 91.5C199 108.876 184.876 123 167.5 123C150.124 123 136 108.876 136 91.5C136 74.1244 150.124 60 167.5 60C184.876 60 199 74.1244 199 91.5ZM137.534 91.5C137.534 108.032 150.983 121.466 167.5 121.466C184.017 121.466 197.466 108.017 197.466 91.5C197.466 74.9679 184.017 61.5336 167.5 61.5336C150.983 61.5336 137.534 74.9679 137.534 91.5Z" fill="white" stroke="white" stroke-width="3"/>
</g>
<defs>
<filter id="filter0_d_592_11708" x="0" y="0" width="335" height="191" filterUnits="userSpaceOnUse" color-interpolation-filters="sRGB">
<feFlood flood-opacity="0" result="BackgroundImageFix"/>
<feColorMatrix in="SourceAlpha" type="matrix" values="0 0 0 0 0 0 0 0 0 0 0 0 0 0 0 0 0 0 127 0" result="hardAlpha"/>
<feOffset dy="4"/>
<feGaussianBlur stdDeviation="2"/>
<feComposite in2="hardAlpha" operator="out"/>
<feColorMatrix type="matrix" values="0 0 0 0 0 0 0 0 0 0 0 0 0 0 0 0 0 0 0.25 0"/>
<feBlend mode="normal" in2="BackgroundImageFix" result="effect1_dropShadow_592_11708"/>
<feBlend mode="normal" in="SourceGraphic" in2="effect1_dropShadow_592_11708" result="shape"/>
</filter>
</defs>
</svg>
